<?xml version="1.0" encoding="UTF-8" standalone="no"?>
<svg
   viewBox="0 0 300 76.8"
   fill="url(#gradient)"
   version="1.1"
   id="svg6"
   sodipodi:docname="logo.svg"
   inkscape:version="1.4 (86a8ad7, 2024-10-11)"
   xmlns:inkscape="http://www.inkscape.org/namespaces/inkscape"
   xmlns:sodipodi="http://sodipodi.sourceforge.net/DTD/sodipodi-0.dtd"
   xmlns:xlink="http://www.w3.org/1999/xlink"
   xmlns="http://www.w3.org/2000/svg"
   xmlns:svg="http://www.w3.org/2000/svg">
  <sodipodi:namedview
     id="namedview6"
     pagecolor="#ffffff"
     bordercolor="#000000"
     borderopacity="0.25"
     inkscape:showpageshadow="2"
     inkscape:pageopacity="0.0"
     inkscape:pagecheckerboard="0"
     inkscape:deskcolor="#d1d1d1"
     inkscape:zoom="2.3966667"
     inkscape:cx="134.97914"
     inkscape:cy="35.883171"
     inkscape:window-width="1536"
     inkscape:window-height="890"
     inkscape:window-x="-6"
     inkscape:window-y="-6"
     inkscape:window-maximized="1"
     inkscape:current-layer="svg6" />
  <defs
     id="defs2">
    <linearGradient
       id="gradient"
       x1="0%"
       y1="0%"
       x2="100%"
       y2="100%">
      <stop
         offset="0%"
         style="stop-color:rgb(255, 255, 255); stop-opacity: 1"
         id="stop1" />
      <stop
         offset="100%"
         style="stop-color:rgb(149, 208, 251); stop-opacity: 1"
         id="stop2" />
    </linearGradient>
    <linearGradient
       inkscape:collect="always"
       xlink:href="#gradient"
       id="linearGradient107"
       x1="33.036847"
       y1="41.173712"
       x2="107.92881"
       y2="116.06568"
       gradientTransform="matrix(2.1590476,0,0,0.46316719,3.671875,0)"
       gradientUnits="userSpaceOnUse" />
  </defs>
  <g
     transform="scale(0.15)"
     id="g6">
    <g
       id="g2">
      <polygon
         points="467.657,107.392 460.043,115.005 452.349,107.312 441.504,118.158 460.043,136.696 478.502,118.236 "
         id="polygon2" />
    </g>
    <g
       id="g3">
      <polygon
         points="59.651,139.468 52.036,147.082 44.343,139.388 33.498,150.233 52.036,168.773 70.496,150.313 "
         id="polygon3" />
    </g>
    <g
       id="g4">
      <polygon
         points="182.306,275.563 174.692,283.176 167,275.483 156.154,286.328 174.692,304.867 193.152,286.408 "
         id="polygon4" />
    </g>
    <g
       id="g5">
      <polygon
         points="382.991,442.666 375.378,450.279 367.684,442.586 356.838,453.432 375.378,471.97 393.836,453.511 "
         id="polygon5" />
    </g>
    <path
       d="M371.42,315.239l-6.857-0.378c-2.189-0.122-53.994-2.598-85.318,28.726c-5.679,5.679-10.242,12.032-13.914,18.64V250.918 c2.614-0.306,5.195-0.767,7.725-1.396c22.695-5.254,45.88-21.904,67.048-48.157c40.547-50.284,37.684-138.863,37.542-142.609 l-0.364-9.627l-9.3,2.513c-0.605,0.164-13.063,3.556-30.849,10.146c-3.912-29.12-12.118-52.137-12.503-53.207L321.538,0 l-7.924,4.521c-1.266,0.722-29.47,16.927-55.952,41.181C231.179,21.447,202.975,5.242,201.71,4.521L193.788,0l-3.092,8.582 c-0.385,1.07-8.592,24.088-12.504,53.207c-17.785-6.588-30.243-9.982-30.848-10.146l-9.3-2.513l-0.364,9.627 c-0.142,3.747-3.006,92.326,37.542,142.608c21.142,26.22,44.294,42.859,66.962,48.134c0.006,0.001,0.011,0.003,0.017,0.005 c0.012,0.003,0.023,0.005,0.036,0.008c0.034,0.008,0.069,0.017,0.102,0.026v-0.001c2.51,0.622,5.072,1.083,7.656,1.385v140.233 c-3.028-4.958-6.643-9.712-10.97-14.037c-28.589-28.591-75.812-26.33-77.807-26.223l-6.857,0.378l-0.378,6.857 c-0.109,1.996-2.368,49.217,26.223,77.807c21.9,21.9,54.727,25.698,69.788,26.228V512h15.338v-75.816 c15.904-0.417,53.134-4.163,77.741-28.77c31.324-31.324,28.846-83.128,28.726-85.318L371.42,315.239z M191.05,425.094 c-17.711-17.711-21.11-45.664-21.689-58.818c13.161,0.58,41.11,3.981,58.818,21.689c17.711,17.711,21.11,45.664,21.689,58.818 C236.707,446.203,208.757,442.802,191.05,425.094z M313.082,22.827c2.86,9.684,7.124,26.181,9.319,44.705 c-0.129,0.053-0.256,0.107-0.384,0.161c-0.346,0.142-0.686,0.286-1.032,0.429c-1.46,0.604-2.909,1.214-4.347,1.827 c-0.518,0.221-1.035,0.443-1.55,0.666c-1.464,0.632-2.917,1.269-4.358,1.91c-0.294,0.131-0.593,0.261-0.887,0.393 c-1.698,0.761-3.375,1.53-5.038,2.303c-0.442,0.206-0.879,0.413-1.319,0.62c-1.285,0.603-2.558,1.211-3.821,1.821 c-0.459,0.222-0.92,0.444-1.376,0.667c-1.628,0.796-3.242,1.595-4.831,2.402c-0.062,0.032-0.123,0.063-0.185,0.095 c-1.211,0.616-2.412,1.234-3.6,1.856c-0.043-0.068-0.09-0.136-0.133-0.205c-0.607-0.957-1.233-1.917-1.879-2.879 c-0.139-0.207-0.284-0.414-0.425-0.622c-0.529-0.778-1.071-1.556-1.625-2.337c-0.208-0.291-0.416-0.584-0.627-0.875 c-0.58-0.804-1.174-1.608-1.78-2.415c-0.137-0.182-0.269-0.364-0.407-0.546c-0.74-0.975-1.503-1.952-2.282-2.931 c-0.198-0.248-0.402-0.498-0.602-0.746c-0.61-0.758-1.233-1.516-1.867-2.276c-0.242-0.29-0.485-0.581-0.731-0.872 c-0.762-0.902-1.537-1.804-2.331-2.708c-0.077-0.088-0.15-0.175-0.228-0.263c-0.871-0.988-1.766-1.977-2.675-2.965 c-0.256-0.278-0.515-0.556-0.774-0.833c-0.698-0.752-1.407-1.503-2.127-2.256c-0.17-0.178-0.331-0.355-0.502-0.533 C285.414,41.21,303.093,29.187,313.082,22.827z M202.248,22.826c11.119,7.077,31.765,21.171,50.078,38.916 c1.117,1.082,2.198,2.161,3.266,3.237c0.224,0.226,0.449,0.453,0.671,0.679c1.026,1.045,2.03,2.088,3.007,3.128 c0.178,0.189,0.352,0.379,0.529,0.568c0.902,0.966,1.784,1.931,2.644,2.893c0.132,0.148,0.269,0.295,0.4,0.444 c0.923,1.039,1.817,2.074,2.691,3.107c0.195,0.231,0.39,0.462,0.583,0.692c0.869,1.039,1.721,2.076,2.541,3.107 c0.084,0.105,0.164,0.211,0.246,0.316c0.766,0.969,1.506,1.936,2.228,2.899c0.151,0.201,0.305,0.403,0.453,0.604 c0.748,1.01,1.471,2.017,2.171,3.022c0.144,0.207,0.284,0.413,0.426,0.62c0.671,0.974,1.322,1.947,1.946,2.914 c0.037,0.056,0.075,0.113,0.111,0.17c-0.191,0.112-0.373,0.228-0.564,0.341c-1.197,0.711-2.376,1.425-3.543,2.143 c-0.325,0.2-0.659,0.398-0.982,0.599c-1.475,0.916-2.925,1.837-4.351,2.764c-0.348,0.226-0.684,0.454-1.029,0.68 c-1.075,0.707-2.138,1.415-3.183,2.127c-0.465,0.317-0.923,0.635-1.382,0.953c-0.925,0.641-1.839,1.283-2.738,1.927 c-0.266,0.19-0.544,0.378-0.808,0.568c-0.441-0.319-0.896-0.636-1.344-0.954c-0.376-0.268-0.75-0.536-1.13-0.803 c-0.901-0.632-1.815-1.261-2.739-1.889c-0.193-0.131-0.38-0.263-0.575-0.394c-1.121-0.756-2.261-1.508-3.415-2.259 c-0.341-0.221-0.689-0.441-1.033-0.662c-0.831-0.534-1.667-1.066-2.514-1.597c-0.434-0.271-0.871-0.541-1.309-0.811 c-0.786-0.486-1.58-0.97-2.38-1.453c-0.452-0.272-0.904-0.545-1.36-0.816c-0.849-0.505-1.708-1.007-2.572-1.509 c-0.403-0.234-0.803-0.469-1.209-0.702c-1.268-0.728-2.548-1.453-3.847-2.172c-1.587-0.879-3.201-1.753-4.834-2.621 c-0.525-0.279-1.062-0.554-1.592-0.832c-1.119-0.587-2.24-1.173-3.38-1.755c-0.646-0.33-1.304-0.656-1.957-0.985 c-1.046-0.526-2.095-1.049-3.157-1.57c-0.701-0.344-1.409-0.684-2.117-1.026c-1.039-0.501-2.084-1-3.138-1.496 c-0.731-0.345-1.466-0.687-2.205-1.029c-1.059-0.491-2.128-0.978-3.201-1.463c-0.742-0.335-1.485-0.672-2.234-1.005 c-1.111-0.494-2.234-0.984-3.36-1.472c-0.724-0.315-1.445-0.63-2.175-0.943c-1.242-0.531-2.5-1.056-3.759-1.581 c-0.626-0.261-1.245-0.525-1.875-0.783c-0.11-0.045-0.218-0.092-0.327-0.137C195.118,49.043,199.387,32.523,202.248,22.826z M208.957,158.948c-1.327,2.63-2.53,5.239-3.589,7.786c-0.391,0.939-0.761,1.873-1.117,2.805 c-0.113,0.297-0.217,0.591-0.326,0.886c-0.236,0.635-0.468,1.269-0.688,1.9c-0.121,0.347-0.233,0.691-0.349,1.037 c-0.193,0.579-0.383,1.155-0.563,1.73c-0.112,0.36-0.22,0.718-0.327,1.076c-0.168,0.562-0.33,1.122-0.486,1.681 c-0.099,0.356-0.196,0.712-0.289,1.065c-0.149,0.564-0.288,1.127-0.424,1.687c-0.082,0.338-0.165,0.678-0.242,1.015 c-0.136,0.597-0.26,1.191-0.38,1.784c-0.059,0.292-0.124,0.586-0.179,0.877c-0.14,0.73-0.264,1.456-0.38,2.18 c-0.023,0.15-0.054,0.302-0.077,0.451c-0.136,0.88-0.254,1.756-0.354,2.625c-0.021,0.185-0.035,0.367-0.055,0.551 c-0.073,0.674-0.138,1.345-0.19,2.011c-0.023,0.292-0.037,0.582-0.055,0.873c-0.036,0.556-0.067,1.11-0.088,1.662 c-0.012,0.321-0.018,0.64-0.026,0.959c-0.011,0.518-0.018,1.036-0.016,1.549c0.001,0.327,0.005,0.652,0.011,0.978 c0.01,0.506,0.028,1.009,0.05,1.511c0.014,0.319,0.029,0.639,0.048,0.956c0.032,0.511,0.074,1.019,0.119,1.527 c0.027,0.299,0.05,0.598,0.081,0.895c0.058,0.556,0.131,1.106,0.206,1.656c0.033,0.238,0.059,0.48,0.094,0.717 c0.007,0.045,0.011,0.092,0.018,0.137c-4.116-4.189-8.198-8.789-12.221-13.78c-29.409-36.469-33.657-98.307-34.152-122.39 c6.954,2.202,17.149,5.643,28.865,10.269c15.685,6.194,30.129,12.932,42.931,20.025c1.64,0.909,3.245,1.826,4.83,2.747 c0.445,0.259,0.883,0.517,1.324,0.777c1.239,0.729,2.46,1.462,3.664,2.198c0.363,0.222,0.73,0.443,1.09,0.665 c1.505,0.932,2.985,1.867,4.432,2.808c0.286,0.186,0.563,0.373,0.848,0.56c1.175,0.771,2.33,1.546,3.465,2.322 c0.217,0.148,0.432,0.297,0.647,0.446c-0.782,0.678-1.552,1.359-2.308,2.041c-0.036,0.033-0.07,0.064-0.105,0.097 c-0.909,0.822-1.794,1.646-2.665,2.473c-0.261,0.247-0.518,0.496-0.776,0.744c-0.707,0.681-1.4,1.363-2.08,2.047 c-0.197,0.199-0.4,0.397-0.595,0.596c-0.84,0.855-1.659,1.713-2.457,2.572c-0.188,0.202-0.37,0.406-0.556,0.609 c-0.631,0.688-1.248,1.377-1.852,2.069c-0.218,0.248-0.436,0.497-0.649,0.746c-0.751,0.873-1.487,1.747-2.194,2.624 c-7.563,9.38-13.801,18.641-18.541,27.527C209.856,157.192,209.4,158.071,208.957,158.948z M245.918,234.623 c-4.848-1.211-9.5-3.216-13.828-5.959c-6.963-4.414-11.927-9.899-14.864-16.342c-4.897-10.74-4.168-24.143,2.302-39.698 c1.225-2.945,2.681-6.004,4.327-9.092c0.536-1.004,1.094-2.015,1.674-3.033c4.058-7.12,9.185-14.534,15.274-22.084 c4.884-6.055,11.041-12.099,18.338-18.004c1.042-0.844,2.108-1.684,3.196-2.522c3.042-2.34,6.277-4.666,9.69-6.969 c5.689-3.838,11.876-7.611,18.493-11.278c8.001-4.434,16.644-8.727,25.829-12.837c5.511-2.465,11.219-4.865,17.101-7.188 c11.696-4.619,21.899-8.063,28.865-10.268c-0.495,24.084-4.745,85.92-34.152,122.389c-19.014,23.579-39.284,38.398-58.622,42.854 l-0.137,0.033c-3.771,0.942-7.711,1.399-11.781,1.391C253.633,236.039,249.69,235.567,245.918,234.623z M332.227,396.568 c-20.146,20.148-52.106,23.688-66.357,24.222c0.535-14.257,4.076-46.213,24.221-66.358c20.153-20.153,52.127-23.689,66.372-24.221 C355.953,344.443,352.452,376.345,332.227,396.568z"
       id="path5" />
  </g>
  <path
     d="m 89.179687,42.859375 q 0.75,-1.101563 3.46875,-5.296875 2.320313,-3.585938 7.406253,-10.335938 2.95312,-3.914062 5.34375,-6.5625 1.42969,-1.59375 2.53125,-1.59375 0.63281,0 1.05469,0.445313 0.375,0.351562 0.375,0.890625 0,0.796875 -0.96094,2.507812 -0.1875,0.351563 -1.92188,3.398438 -3.09375,5.484375 -4.19531,7.828125 -3.023438,6.421875 -4.429688,10.945312 -0.820312,2.695313 -0.820312,3.960938 0,0.28125 0.04687,0.585937 0.117187,0.914063 0.117187,1.078125 0,0.679688 -0.515625,1.265625 -0.445312,0.539063 -1.007812,0.539063 -0.65625,0 -1.078125,-0.773438 -0.351563,-0.585937 -0.351563,-1.640625 0,-6.632812 11.062503,-26.0625 -5.789065,6.1875 -12.820315,17.71875 -1.546875,2.507813 -2.554688,3.398438 -0.984375,0.867187 -1.875,0.867187 -0.890625,0 -1.3125,-0.773437 -0.28125,-0.515625 -0.28125,-1.195313 0,-5.859375 6.960938,-18.445312 -2.367188,2.414062 -4.546875,5.601562 -3.960938,5.882813 -7.078125,12.070313 -1.476563,2.976562 -3.585938,7.945312 -1.054687,2.53125 -2.4375,2.53125 -0.351562,0 -0.585937,-0.304687 Q 75,53.242187 75,52.9375 75,52.492187 75.867187,50.5 77.71875,46.117187 78.703125,44.195312 83.742187,34.375 90.632812,25.726562 q 2.882813,-3.609375 3.984375,-4.6875 1.148438,-1.101562 1.898438,-1.101562 0.46875,0 0.914062,0.421875 0.539063,0.492187 0.539063,1.125 0,0.703125 -0.984375,2.320312 -2.8125,4.59375 -5.179688,10.3125 -2.039062,5.15625 -2.625,8.742188 z m 22.335943,-3 Q 108.44531,45.8125 107.25,49.375 106.54688,51.4375 106.28906,51.671875 105.96094,52 105.28125,52 q -0.5625,0 -0.86719,-0.375 -0.28125,-0.351563 -0.28125,-0.726563 0,-1.101562 2.10938,-5.859375 1.5,-3.421875 3.98437,-7.78125 -0.32812,-1.078125 -0.32812,-1.640625 0,-0.796875 0.60937,-1.265625 0.30469,-0.234375 0.65625,-0.234375 0.32813,0 0.84375,0.234375 0.35157,-0.609375 2.60157,-4.476562 2.01562,-3.914063 2.22656,-4.59375 -0.63281,0.28125 -1.00781,0.492187 -0.39844,0.210938 -0.63282,0.210938 -0.30468,0 -0.51562,-0.328125 -0.16406,-0.257813 -0.16406,-0.585938 0,-1.171875 1.57031,-2.0625 1.10156,-0.632812 2.15625,-1.054687 0.30469,-1.101563 0.49219,-1.453125 0.32812,-0.632813 1.05468,-0.632813 0.79688,0 1.38282,0.890625 1.10156,-0.328125 2.08593,-0.492187 1.00782,-0.164063 1.89844,-0.164063 2.71875,0 4.125,1.546875 1.33594,1.476563 1.33594,3.585938 0,3.445312 -2.69531,6.515625 -2.53125,2.859375 -6.75,4.382812 -3.23438,1.171875 -6.375,1.171875 -0.53907,0 -1.64063,-0.07031 0.375,1.429687 1.00781,2.859375 1.10157,2.320312 3.14063,6.65625 0.58594,1.148437 1.92187,3.28125 0.35157,0.5625 0.35157,1.03125 0,0.445312 -0.51563,0.84375 -0.53906,0.375 -0.91406,0.375 -0.58594,0 -1.24219,-1.242188 -0.32812,-0.585937 -0.82031,-1.453125 -1.80469,-2.976562 -4.57031,-9.726562 z m 2.85937,-5.0625 q 0.89063,0.04687 1.33594,0.04687 4.85156,0 9.07031,-3.398438 1.85156,-1.5 3,-3.46875 0.72656,-1.21875 0.72656,-2.578125 0,-1.382812 -0.89062,-2.0625 -0.86719,-0.703125 -2.625,-0.703125 -1.59375,0 -3.21094,0.609375 -0.63281,0.234375 -1.80469,0.773438 -0.82031,1.875 -2.67187,5.4375 -1.85156,3.539062 -2.92969,5.34375 z M 154.10156,23.5 q -1.21875,1.359375 -3.23437,4.5 -2.03907,3.1875 -2.92969,4.921875 5.0625,-1.007813 7.00781,-1.007813 0.9375,0 1.42969,0.1875 0.5625,0.1875 0.5625,0.867188 0,1.453125 -1.64063,1.453125 -0.0937,0 -0.375,0 -0.70312,-0.02344 -1.03125,-0.02344 -2.32031,0 -7.71093,1.523438 -3.42188,5.882812 -6.02344,14.0625 -0.35156,1.242187 -1.10156,1.242187 -0.65625,0 -1.10157,-0.726562 -0.35156,-0.539063 -0.35156,-1.078125 0,-0.609375 1.28906,-4.125 2.13282,-5.789063 6.09375,-12.421875 2.50782,-4.148438 5.50782,-8.789063 -0.79688,-0.117187 -0.79688,-0.890625 0,-1.148437 2.22656,-1.757812 3.09375,-0.867188 6.02344,-1.335938 3.32813,-0.539062 5.0625,-0.539062 2.74219,0 2.74219,1.382812 0,0.703125 -0.63281,1.148438 -0.25782,0.1875 -0.58594,0.1875 -0.28125,0 -0.79688,-0.07031 -0.79687,-0.117187 -1.38281,-0.117187 -1.26562,0 -4.26562,0.492187 -2.15625,0.328125 -3.98438,0.914063 z m 5.34375,18.890625 q -0.70312,1.828125 -1.05469,2.953125 -0.35156,1.125 -0.35156,1.570312 0,0.585938 0.5625,0.585938 0.84375,0 2.17969,-1.59375 0.63281,-0.773438 1.875,-2.789063 0.49219,-0.796875 1.03125,-0.796875 0.60937,0 0.60937,0.585938 0,1.007812 -2.32031,4.078125 -2.41406,3.210937 -4.47656,3.210937 -0.89063,0 -1.45313,-0.75 -0.39843,-0.539062 -0.39843,-1.3125 0,-1.3125 0.79687,-3.632812 0.79688,-2.320313 2.36719,-5.648438 4.03125,-8.460937 8.22656,-13.945312 3.35156,-4.40625 5.55469,-4.40625 0.70312,0 1.14844,0.539062 0.46875,0.539063 0.46875,1.242188 0,3.28125 -5.85938,10.921875 -2.625,3.398437 -6.28125,6.796875 -0.96094,0.890625 -2.625,2.390625 z m 1.66406,-3.726563 q 4.875,-4.171875 8.71875,-10.546875 1.99219,-3.304687 1.99219,-4.382812 0,-0.515625 -0.44531,-0.515625 -1.28906,0 -4.6875,5.132812 -2.8125,4.21875 -5.57813,10.3125 z m 13.85157,-3.609375 q 1.92187,0 1.92187,2.34375 0,3.117188 -2.88281,7.898438 -3.14063,5.179687 -6.07031,5.179687 -1.35938,0 -1.99219,-1.265625 -0.32813,-0.632812 -0.32813,-1.523437 0,-3 2.0625,-6.515625 1.92188,-3.257813 4.52344,-5.0625 1.52344,-1.054688 2.76563,-1.054688 z m -2.4375,8.859375 q -0.58594,-0.46875 -0.58594,-0.726562 0,-0.1875 0.75,-1.03125 2.10937,-2.367188 2.10937,-3.820313 0,-0.1875 -0.11718,-0.375 -0.1875,-0.351562 -0.58594,-0.351562 -0.75,0 -2.20313,1.453125 -1.875,1.875 -2.85937,3.867187 -1.14844,2.273438 -1.14844,3.773438 0,0.398437 0.21094,0.703125 0.30469,0.421875 0.77344,0.421875 1.125,0 2.41406,-1.6875 0.5625,-0.703125 0.91406,-1.453125 0.35156,-0.75 0.32813,-0.773438 z m 12.67968,-0.28125 q -2.01562,2.71875 -2.97656,3.75 -1.19531,1.289063 -2.0625,1.96875 -0.98437,0.726563 -1.82812,0.726563 -0.82032,0 -1.26563,-0.820313 -0.35156,-0.632812 -0.35156,-1.40625 0,-2.554687 3.04687,-7.03125 2.76563,-4.054687 4.10157,-4.054687 0.32812,0 0.63281,0.304687 0.28125,0.28125 0.28125,0.65625 0,0.515625 -0.91406,1.429688 -1.94532,1.921875 -3.375,4.335937 -1.21875,2.0625 -1.21875,2.695313 0,0.46875 0.42187,0.46875 1.40625,0 6.09375,-6.09375 1.52344,-1.96875 1.85156,-2.273438 0.60938,-0.5625 1.24219,-0.5625 0.42188,0 0.72656,0.234375 0.25782,0.234375 0.25782,0.492188 0,0.28125 -1.125,2.367187 -2.55469,4.5 -2.55469,6.070313 0,0.609375 0.49219,0.609375 0.84375,0 2.32031,-1.945313 1.40625,-1.828125 2.60156,-4.640625 0.51563,-1.21875 0.91406,-3.210937 0.46875,-2.273438 1.875,-2.273438 0.79688,0 0.79688,0.890625 0,3.070313 -3.42188,8.4375 -3.5625,5.601563 -6,5.601563 -1.80468,0 -1.80468,-2.226563 0,-1.828125 1.24218,-4.5 z m 11.8125,2.039063 v 0.421875 q 0,0.515625 0.25782,0.890625 0.58593,0.867187 1.92187,0.867187 2.92969,0 6.77344,-4.5 0.67969,-0.773437 1.14844,-0.773437 0.25781,0 0.46875,0.257812 0.14062,0.1875 0.14062,0.351563 0,0.914062 -2.25,3.09375 -1.75781,1.710937 -3.75,2.789062 -1.99219,1.078125 -3.70312,1.078125 -1.75782,0 -2.76563,-1.21875 -0.67969,-0.84375 -0.67969,-2.296875 0,-3.960937 3.72657,-7.757812 3.02343,-3.09375 5.27343,-3.09375 0.60938,0 1.10157,0.375 0.60937,0.492187 0.60937,1.289062 0,1.242188 -1.14844,3.046875 -2.36718,3.75 -7.125,5.179688 z m 0.51563,-1.828125 q 1.64062,-0.5625 2.57812,-1.265625 1.64063,-1.265625 2.60157,-2.859375 0.35156,-0.5625 0.35156,-1.007813 0,-0.46875 -0.44531,-0.46875 -0.60938,0 -1.73438,0.914063 -2.01562,1.617187 -3.35156,4.6875 z M 212.625,42.460937 Q 214.92187,40 217.92187,37.65625 219,36.8125 220.21875,36.085937 q 0.60937,-0.351562 0.77344,-0.351562 0.35156,0 0.70312,0.515625 0.21094,0.28125 0.21094,0.515625 0,0.421875 -0.89063,1.148437 -2.39062,1.898438 -2.39062,2.859375 0,0.539063 0.60937,0.539063 1.00782,0 3.46875,-1.664063 0.42188,-0.28125 0.70313,-0.28125 0.1875,0 0.375,0.1875 0.21094,0.210938 0.21094,0.445313 0,0.703125 -1.96875,2.15625 -2.0625,1.546875 -3.91407,1.546875 -0.75,0 -1.38281,-0.398438 -0.53906,-0.328125 -0.53906,-1.171875 0,-0.585937 0.49219,-1.335937 -1.85157,1.3125 -4.35938,4.5 -1.45312,1.96875 -2.88281,4.851562 -0.53906,1.078125 -1.33594,1.078125 -0.86719,0 -0.86719,-0.820312 0,-0.796875 1.35938,-4.265625 2.01562,-5.15625 4.21875,-7.992188 1.35937,-1.757812 2.27344,-1.757812 0.30468,0 0.5625,0.1875 0.30468,0.234375 0.30468,0.585937 0,0.351563 -0.46875,0.984375 -0.0937,0.117188 -1.24218,1.570313 -1.05469,1.382812 -1.61719,2.742187 z m 21.16406,-7.851562 q 1.45313,0 2.17969,0.515625 0.72656,0.515625 0.72656,1.570312 0,1.382813 -1.03125,2.671875 -0.98437,1.21875 -2.95312,1.96875 -1.07813,0.398438 -1.80469,0.398438 -0.98438,0 -0.98438,-0.867188 0,-0.585937 0.5625,-0.890625 0.14063,-0.07031 1.59375,-0.398437 0.86719,-0.1875 1.59375,-0.820313 0.63282,-0.539062 0.63282,-1.171875 0,-0.492187 -0.28125,-0.726562 -0.28125,-0.234375 -0.84375,-0.234375 -1.35938,0 -3,1.101562 -1.89844,1.242188 -1.89844,2.953125 0,1.21875 1.24219,3.046875 1.38281,1.992188 1.38281,3.375 0,2.0625 -1.82813,3.234375 -1.125,0.726563 -2.55468,0.726563 -2.25,0 -3.42188,-1.617188 -0.82031,-1.148437 -0.82031,-2.71875 0,-1.828125 0.9375,-3.070312 0.60937,-0.820313 1.26562,-0.820313 0.58594,0 0.58594,0.46875 0,0.1875 -0.21094,0.5625 -0.53906,1.007813 -0.53906,2.367188 0,1.148437 0.82031,1.945312 0.72657,0.703125 1.66407,0.703125 0.91406,0 1.42968,-0.609375 0.42188,-0.515625 0.42188,-1.3125 0,-0.984375 -1.125,-2.554687 -1.54688,-2.15625 -1.54688,-3.914063 0,-2.34375 2.55469,-4.148437 2.48438,-1.734375 5.25,-1.734375 z"
     id="text6"
     style="font-size:48px;font-family:'Freestyle Script';-inkscape-font-specification:'Freestyle Script, Normal';fill:url(#linearGradient107)"
     aria-label="MR Flowers" />
</svg>
